<svg class="mx-auto" xmlns="http://www.w3.org/2000/svg" id="svg8" version="1.1" viewBox="0 0 210 297" height="297mm" width="210mm">
    <g id="layer1">
        <path id="path847"
              d="M99.275 296.864c0-.072.649-4.924 1.44-10.782 2.262-16.72 2.302-17.147 2.455-25.753.13-7.337.104-8.038-.342-8.978-.985-2.076-8.171-8.563-12.116-10.938l-1.473-.887-2.721.822c-1.496.452-3.614.937-4.705 1.078-1.091.14-2.79.49-3.775.775-2.02.586-2.194.35-.269-.367.696-.26 1.369-.565 1.495-.679.32-.289-.978-.9-2.976-1.4-.93-.232-1.763-.501-1.853-.599-.245-.266 2.409.12 4.926.718 2.347.558 3.797.578 3.969.055.056-.171-.322-.781-.84-1.355-1.178-1.304-1.233-1.753-.082-.67.473.445 1.225 1.017 1.671 1.27.784.447.857.443 2.175-.124 2.255-.97 2.255-1.07.01-3.314-1.653-1.654-2.117-1.977-2.842-1.977-.476 0-1.185-.227-1.574-.504-.39-.277-1.384-.7-2.21-.94-1.016-.296-1.458-.55-1.368-.784.207-.539-1.371-1.693-2.938-2.148-1.272-.37-1.576-.371-2.944-.014-.84.219-1.875.656-2.301.971-.484.358-.733.437-.664.21.171-.56 2.301-1.518 4.313-1.94l1.818-.38.947.739c2.186 1.705 6.724 3.966 7.015 3.495.18-.291-2.667-4.355-4.314-6.157-.716-.783-1.612-1.59-1.991-1.793-.88-.47-.9-.876-.028-.544.774.294.854-.027.264-1.059-.208-.363-.38-.84-.381-1.058-.005-.56.928.66 1.551 2.031.277.608.972 1.62 1.546 2.249.574.63 1.492 1.74 2.042 2.467 1.423 1.886 2.262 2.86 2.363 2.745.847-.958 1.18-3.009.65-3.999-.288-.54-.274-.539.464.044.755.596.762.597.844.056.046-.3-.162-1.1-.463-1.78-.623-1.409-.648-1.526-.277-1.297.424.263 1.054 1.968 1.054 2.855 0 .445-.256 1.603-.568 2.573-.324 1.007-.498 2.037-.405 2.4.38 1.486 6.564 7.735 7.1 7.175.264-.276.753-3.155.748-4.404-.006-1.516-.49-2.32-1.583-2.625-.662-.185-.787-.291-.438-.372.408-.094.458-.27.307-1.08-.22-1.176-.247-1.204 1.367 1.413 1.192 1.933 1.288 2.209 1.108 3.175-.362 1.947-.255 3.656.286 4.543.657 1.077 6.86 5.908 7.587 5.908.562 0-1.346-6.66-2.655-9.266-.358-.712-1.95-3.414-3.538-6.003-1.588-2.589-3.284-5.48-3.769-6.427-.484-.946-1.208-2.206-1.609-2.8-.812-1.205-.555-1.112-8.039-2.902-2.183-.523-5.16-1.425-6.615-2.005-3.29-1.312-4.572-1.376-6.501-.326-2.257 1.228-3.931 4.418-3.978 7.578-.024 1.661-.065 1.816-.315 1.183-.159-.4-.432-.728-.608-.728-.175 0-1.147.887-2.159 1.97-1.234 1.321-1.927 1.883-2.106 1.704-.37-.37-1.569 1.104-1.916 2.354-.323 1.163-.35 2.442-.062 2.896.131.206-.28.853-1.124 1.768-1.43 1.551-1.895 1.759-.942.42.734-1.03 1.458-3.674 1.104-4.028-.162-.162-.449-.149-.794.036-.733.392-2.192.35-2.757-.08-.679-.515-.567-.792.125-.308 1.071.75 2.057.528 3.155-.712.547-.619 2.138-2.413 3.535-3.986 2.79-3.143 3.567-4.257 3.568-5.114.001-.747-.396-.868-1.986-.607-2.14.35-5.05.278-7.046-.176-1.024-.233-2.204-.373-2.622-.312-.502.074-.81-.02-.908-.275-.082-.214-.116-.415-.077-.448.04-.034.95.047 2.02.178 1.37.167 2.054.15 2.304-.057.267-.222.506-.19.956.124.33.231.96.42 1.4.42 1.147-.002 5.746-.925 6.43-1.29 1.293-.693 1.214-1.885-.126-1.885-1.052 0-.662-.391.718-.719 1.812-.43 5.818-2.638 5.816-3.205 0-.243-.97-1.975-2.154-3.848l-2.153-3.407-1.387.143c-1.763.182-4.246 1.349-4.817 2.262-.242.387-.473.75-.513.808-.04.057-.245-.038-.453-.21-.42-.35-3.141.011-4.992.66-.878.309-.992.3-.992-.074 0-.368-.28-.4-2.112-.247-1.16.096-2.828.399-3.704.671-.876.273-1.592.451-1.592.397 0-.055.476-.342 1.058-.64 1.1-.56 1.29-.97.728-1.566-.267-.282-.202-.28.33.008.857.463 5.893.455 8.07-.013.873-.188 2.058-.58 2.632-.872.981-.498 1.014-.552.544-.895-.274-.201-.744-.381-1.044-.4-.3-.02.258-.128 1.24-.243 2.1-.244 4.26-.915 4.716-1.464.263-.317.21-.513-.287-1.041-.923-.983-4.685-3.437-6.747-4.402-1.635-.765-2.137-.867-4.758-.968l-2.93-.112-2.2 1.106c-1.21.609-2.243 1.064-2.295 1.012-.052-.052.322-.319.831-.593.51-.274.872-.64.806-.811-.129-.335 2.077-1.046 4.099-1.32 2.27-.31 2.395-.363 2.208-.95-.165-.52-.145-.526.482-.115.359.236 1.955 1 3.546 1.697 5.281 2.316 8.808 4.995 12.23 9.29l2.008 2.52.065-1.322c.036-.728.137-1.86.225-2.514l.16-1.19.509 1.322c.386 1.005.443 1.47.238 1.931-.746 1.676-.068 3.855 1.68 5.404 1.638 1.452 8.178 3.413 8.917 2.674.204-.204-.106-1.218-1.087-3.56-1.156-2.758-1.387-3.586-1.466-5.258l-.093-1.984.399 1.587c.884 3.52.905 3.572 1.444 3.572.363 0 .517.178.514.595-.003.328.558 1.7 1.247 3.05 1.233 2.416 1.272 2.46 2.566 2.844.724.214 1.662.39 2.087.39h.771l-.184-1.653c-.232-2.07-1.276-7.704-2-10.789-.318-1.357-1.068-3.37-1.788-4.8-1.189-2.364-1.302-2.496-2.796-3.254-1.974-1.003-3.18-1.02-4.616-.07-1.354.896-1.857 1.65-2.292 3.43l-.34 1.393-.03-1.398c-.03-1.432.225-2.038 1.522-3.629l.647-.793-1.694-.168c-.932-.092-3.54-.188-5.795-.214-2.256-.025-4.577-.148-5.16-.273-.83-.178-.521-.218 1.433-.183 1.466.026 2.528-.065 2.58-.22.056-.169 2.046-.24 5.446-.195 5.722.076 6.563-.066 5.623-.945-.291-.272-1.978-1.412-3.75-2.534l-3.22-2.04-2.071.409c-1.405.277-4.979.49-11.099.662-8.75.246-9.089.276-11.06.956-1.12.387-2.093.645-2.164.574-.1-.101 3.495-1.334 6.509-2.231.323-.097.3-.194-.133-.528-.687-.532-4.227-2.198-4.679-2.201-.191-.002-.548-.48-.792-1.061l-.445-1.058 1.106.884c1.366 1.092 2.748 1.914 3.62 2.151.363.1 1.429.56 2.367 1.023 1.699.838 1.724.842 5.874.842 2.796 0 4.268-.1 4.473-.306.23-.23-.073-.605-1.244-1.534-.852-.676-2.165-1.61-2.92-2.076-.753-.466-1.427-1.057-1.497-1.313-.187-.688-1.51-1.138-5.111-1.738-1.77-.294-3.615-.74-4.101-.99-1.241-.64-2.604-1.71-2.604-2.046 0-.156.328.03.728.411.861.822 3.388 2.045 4.233 2.048.667.003.802-.705.31-1.625-.158-.294-.226-.595-.151-.67.074-.074.383.351.686.945.335.657.783 1.129 1.143 1.204.325.069 1.205.245 1.955.393 1.572.31 3.284 1.263 6.14 3.42 2.778 2.096 3.684 2.611 5.18 2.947 1.351.303 3.944-.031 4.264-.549.086-.139-.156-.623-.537-1.076-.983-1.168-1.63-2.53-2.229-4.69-.286-1.032-.595-2-.688-2.15-.093-.15-.77-.577-1.505-.95l-1.335-.676-1.527.814c-1.97 1.05-2.336 1.039-.714-.022 1.464-.957 1.504-1.393.211-2.264-1.185-.8-2.818-1.22-4-1.03-.6.095-1.92-.086-3.546-.489-2.824-.7-3.616-1.077-1.739-.83.655.086 2.441.28 3.97.433 3.406.339 3.965.508 7.213 2.19 1.926.997 2.66 1.26 2.883 1.037.462-.462-.24-1.358-4.266-5.448l-3.607-3.664-1.046.286c-.575.157-2.087.318-3.36.357-2.11.065-2.316.027-2.316-.422 0-.386.13-.457.595-.327.328.093 1.317.24 2.198.33 2.652.266 4.12-.934 2.853-2.334-.241-.267-1.223-.723-2.182-1.013-1.708-.516-2.832-1.045-2.24-1.053.165-.002.726.174 1.249.393 1.005.42 2.29.53 2.289.198 0-.11-.224-.564-.496-1.01-.648-1.062-.98-2.092-.598-1.856.157.097.534.737.837 1.422.303.685.818 1.543 1.146 1.907.327.364.933 1.169 1.347 1.789 1.214 1.822 7.28 7.851 7.588 7.543.147-.146.334-1.164.417-2.261l.151-1.996-1.08-.551c-2.67-1.362-5.317-5.151-4.954-7.089.243-1.293.983-2.706 1.834-3.5 1.06-.989 1.12-.448.091.825-1.702 2.105-1.878 2.97-.998 4.909.68 1.496 2.836 3.615 4.107 4.035.951.314 1.056.296 1.504-.258.265-.327.482-.943.482-1.37 0-.794-.84-2.703-1.32-3a.602.602 0 01-.257-.48c.006-.174.478.2 1.048.83.57.631 1.16 1.072 1.309.98.15-.093.584-.702.966-1.353.605-1.033.719-1.604.89-4.49.109-1.818.29-3.392.405-3.498.114-.106.134 1.584.044 3.757-.125 3.031-.09 3.877.148 3.638.172-.172.435-.312.584-.312.15 0-.15.348-.667.774-1.084.894-2.351 3.16-3.043 5.444-.375 1.24-.476 2.425-.458 5.424.035 6.02 1.041 9.03 3.838 11.476 1.537 1.345 3.53 2.498 3.817 2.21.32-.32-.42-3.022-1.102-4.028-.355-.523-.649-1.273-.652-1.667-.003-.393-.116-1.188-.25-1.766-.134-.578-.2-1.095-.146-1.15.054-.053.514.802 1.022 1.902.508 1.1 1.225 2.3 1.593 2.668.515.515.73 1.108.933 2.573.149 1.073.478 2.19.754 2.56.612.82 3.196 2.63 3.905 2.737.475.071.538-.092.609-1.594.106-2.246-.435-3.958-2.153-6.806-1.506-2.496-5.286-8.099-6.926-10.265-.811-1.073-.88-1.254-.416-1.107.627.2.683.094.98-1.844.2-1.319.202-1.315.393.98.21 2.534.958 4.298 2.405 5.681.771.737.787.74 1.18.218.384-.512.371-1.367-.045-3.043-.139-.56-.119-.59.132-.198.408.638.66.58 1.03-.233.6-1.316.609-.399.021 2.145-.676 2.925-.687 2.878 1.282 5.618 1.677 2.335 2.763 4.31 3.502 6.368.328.914.695 1.723.815 1.797.384.237 1.747-.637 2.591-1.661.818-.992.818-.992.818-.282 0 .51-.276.92-.98 1.45a27.258 27.258 0 00-2.018 1.732c-.996.956-1.031 1.048-.911 2.382.096 1.067.495 2.049 1.732 4.256.884 1.577 1.665 2.925 1.734 2.994.134.134 2.513-3.817 3.769-6.26.652-1.268.762-1.82.857-4.303.101-2.645.06-2.946-.574-4.233-.376-.762-2.15-3.083-3.944-5.158-3.593-4.158-4.712-5.824-5.652-8.413-.76-2.095-.764-2.331-.098-6.335.579-3.484.684-6.828.25-7.987-.153-.41-1.176-1.651-2.273-2.76-1.929-1.948-1.972-2.019-1.303-2.147.56-.107.666-.047.552.313-.203.64 2.243 2.655 3.226 2.658.672.002 1.377-1.188 1.936-3.267.626-2.326 1.119-3.459 1.645-3.783.183-.113.122.117-.136.511-.257.394-.65 1.46-.874 2.371-.53 2.156-.874 3.046-1.599 4.138-.56.842-.586 1.084-.443 4.109.112 2.372.03 4.016-.31 6.271-.382 2.529-.409 3.316-.152 4.552.17.821.415 1.559.544 1.639.13.08.363-.365.52-.988.688-2.722 1.63-5.498 1.865-5.498.437 0 .282.991-.34 2.175-.507.965-.595 1.541-.595 3.91 0 2.296.089 2.916.511 3.572.672 1.043 1.778 2.25 2.063 2.25.402 0 1.767-3.227 2.212-5.225.67-3.016.415-6.927-.66-10.122-.466-1.382-1.202-3.094-1.637-3.804-.434-.71-.735-1.345-.668-1.412.134-.134.583.515 1.577 2.276l.655 1.162.559-1.095c.307-.603.605-1.095.661-1.095.057 0-.147.769-.452 1.708l-.556 1.71.625 1.333c.95 2.028 1.263 2.225 2.532 1.593 1.406-.702 3.48-2.513 3.977-3.475.795-1.538.956-7.663.252-9.616-.159-.441-.104-.423.329.107l.52.636.33-1.033c.182-.568.436-1.146.564-1.285.307-.332.295-.239-.17 1.294-.578 1.904-.821 5.571-.388 5.84.221.136.516-.03.837-.471.273-.375.745-.959 1.047-1.297l.551-.616-.388.661c-.213.364-.763 1.273-1.223 2.02-.459.746-1.071 2.045-1.36 2.885-.755 2.195-1.517 3.038-3.905 4.323-2.307 1.242-2.432 1.455-2.439 4.165-.005 1.681-.712 5.358-1.45 7.531-.366 1.08-.667 2.091-.668 2.248 0 .158.773 1.17 1.72 2.25 2.049 2.336 3.37 4.814 3.847 7.218.192.966.425 1.756.517 1.756.667 0 1.665-4.105 2.114-8.693.4-4.102.335-5.816-.272-7.155-.608-1.34-.504-1.806.13-.58.232.45.53.818.663.818.132 0 .695-.566 1.25-1.257s1.863-2.225 2.906-3.41c1.042-1.183 2.074-2.498 2.293-2.921.634-1.227.932-3.572 1.12-8.817.096-2.692.284-5.43.419-6.085.54-2.634.557-3.336.103-4.214-.246-.474-.397-.912-.336-.973.06-.06.326.367.589.95.527 1.17.767 1.293 1.17.599.447-.767.32-.19-.25 1.14-.294.687-.47 1.315-.39 1.395.08.08.772-.472 1.537-1.228 2.161-2.134 2.038-1.617-.192.807l-2.006 2.18.019 4.236c.01 2.33.117 4.474.237 4.765.19.46.292.367.784-.72.311-.687.736-2.056.945-3.043l.378-1.793-.1 1.487c-.064.943-.549 2.64-1.323 4.63-1.91 4.917-2.224 5.5-4.432 8.24-3.344 4.152-3.43 4.424-4.178 13.247-.16 1.896-.506 3.946-.826 4.895-.302.898-1.783 3.68-3.29 6.181-4.346 7.211-4.22 6.909-4.178 10.003.043 3.205 1.284 9.751 2.629 13.861.854 2.61 2.86 6.645 3.305 6.645.345 0 4.85-4.757 5.465-5.768.328-.542.594-1.413.595-1.95 0-.908-2.075-8.177-2.67-9.348-.148-.291-.86-.933-1.584-1.427-.723-.493-1.27-.942-1.215-.996.055-.055.623.134 1.263.42 1.532.687 1.837.368 1.099-1.15l-.568-1.17.88.574c.797.52.891.718.996 2.1.159 2.106.507 2.377 1.643 1.276.863-.836.914-.851 1.182-.35.246.458.118.624-1.034 1.34-.722.449-1.314.942-1.314 1.096 0 .154.716 1.707 1.59 3.452l1.591 3.173 1.716-1.348c.943-.741 1.769-1.434 1.834-1.54.208-.337-1.604-7.26-2.214-8.455-.323-.633-1.293-1.91-2.156-2.838-1.376-1.479-2.89-4.084-2.89-4.972 0-.164.573.595 1.273 1.687 1.677 2.612 4.287 5.445 4.586 4.975.636-1.003.068-2.367-2.055-4.941-1.658-2.01-2.746-4.043-2.746-5.133 0-1.36 2.59-8.107 2.634-6.863.007.188-.212.783-.487 1.323-1.254 2.465-1.95 5.998-1.365 6.924.33.522.875.017 2.557-2.373 1.118-1.589 1.38-1.818 1.953-1.707.364.071 1.05.016 1.527-.122.503-.146.802-.15.716-.01-.082.131-.596.36-1.144.507-1.3.35-2.918 1.758-4.144 3.604l-.984 1.483 1.022 1.055c1.717 1.771 1.76 1.769 3.147-.174 1.102-1.544 1.282-1.689 1.772-1.426.555.296 2.547.199 3.512-.172.405-.155.46-.128.236.116-.161.175-1.1.488-2.088.694-2.098.44-2.877.888-3.444 1.983-.372.72-.372.988-.006 2.765.224 1.082.408 2.36.408 2.839.002 1.399.738 5.886 1.093 6.664.434.952 1.226.817 2.006-.342.477-.71.61-1.294.635-2.779.017-1.033.085-1.67.151-1.416.204.781.536.538 2.039-1.494 1.324-1.791 2.77-3.278 1.688-1.736-1.208 1.722-2.12 3.56-2.955 5.958-.503 1.444-.862 2.678-.796 2.744.065.065.659-.144 1.319-.465 1.404-.682 3.69-2.742 4.254-3.832.594-1.149.639-.749.098.879-.42 1.266-.69 1.599-2.097 2.596-.889.63-1.615 1.302-1.615 1.496 0 .193.376.482.836.643 1.343.468.67.628-.802.191-1.322-.392-1.36-.387-2.915.39-.986.492-2.153 1.404-3.118 2.436-1.464 1.566-6.591 9.48-7.23 11.162-.445 1.17-.162 2.133 1.82 6.19 2.364 4.842 3.37 7.702 4.407 12.53.242 1.128.535 2.05.65 2.05.427 0 .566-1.04.918-6.87.347-5.722.4-6.068 1.304-8.592 1.525-4.253 3.164-6.673 9.889-14.6 1.203-1.419 2.481-3.182 2.84-3.92 1.806-3.7 1.149-14.679-1.175-19.644-.59-1.262-1.37-2.236-3.241-4.047-1.355-1.312-2.363-2.385-2.241-2.386.122 0 1.012.654 1.976 1.454.964.8 1.839 1.455 1.944 1.455.105 0-.211-1.16-.703-2.58-.537-1.55-1.067-3.839-1.328-5.736-.675-4.902-1.401-6.283-4.254-8.084-.932-.589-1.694-1.136-1.694-1.215 0-.314 2.26 1.147 3.636 2.35.799.698 1.497 1.225 1.551 1.17.097-.096-1.737-4.779-2.75-7.024-.417-.922-.46-1.268-.22-1.784.163-.352.37-.641.459-.643.089 0 .301.862.472 1.917.455 2.817.53 2.872 2.12 1.54 1.617-1.353 1.767-1.129.267.4l-1.08 1.1.812 2.879c.447 1.583 1.122 4.662 1.5 6.842.889 5.138 1.582 6.809 2.114 5.098.101-.327.831-1.698 1.622-3.045 2.175-3.708 2.306-4.245 2.106-8.64-.26-5.734-.634-6.717-4.352-11.463l-2.102-2.681-.318-2.526c-.175-1.39-.545-3.475-.821-4.635l-.504-2.108.7-1.07c.385-.587.734-1.035.775-.994.041.041-.106.6-.328 1.243-.274.797-.347 1.593-.229 2.503.312 2.4 1.22 6.338 1.732 7.51.515 1.179 3.04 4.54 3.41 4.54.114 0 .308-1.1.432-2.446l.224-2.448.153 2.778c.11 1.979.477 4.073 1.276 7.276.618 2.474 1.18 4.766 1.25 5.094.165.78.684.75 2.297-.127 1.64-.893 2.989-2.615 3.545-4.526.738-2.54.598-3.559-.918-6.668-.748-1.534-1.426-3.2-1.507-3.705-.117-.721-.003-.579.534.672.77 1.79 2.478 4.411 2.978 4.57.207.065.33-.155.33-.588 0-1.113 1.166-3.1 2.609-4.45 1.87-1.75 2.036-1.568.216.238-1.124 1.114-1.603 1.83-1.905 2.844-.567 1.9-1.449 6.918-1.449 8.244 0 1.269.797 2.503 1.615 2.503.286 0 .588.18.672.4.085.221.679.534 1.32.695 1.507.38 1.768.779.294.45-.617-.138-1.87-.66-2.785-1.162-.915-.502-1.765-.912-1.89-.912-.124 0-.796.471-1.493 1.047-.696.575-1.945 1.408-2.775 1.85-1.364.727-1.567.952-2.106 2.328-.327.837-1.314 2.95-2.192 4.697-2.097 4.17-2.099 4.4-.08 10.524l1.552 4.704 1.402-1.55c.771-.852 2.063-2.005 2.871-2.561.808-.556 1.531-1.209 1.608-1.45.157-.494-1.215-7.216-1.825-8.94-.503-1.422-.173-1.472.42-.063.243.58.6 1.053.793 1.05.467-.008 2.413-2.982 2.982-4.555.249-.69.547-1.313.662-1.384.115-.07.02.398-.212 1.041-.232.644-.347 1.245-.256 1.336.091.09.665-.09 1.276-.4 1.581-.808 1.545-.526-.074.56-2.334 1.57-4.16 4.434-3.783 5.936.118.469.343.647.819.647.36 0 .656.119.656.264a.26.26 0 01-.255.265c-.14 0-.376.225-.523.5-.286.534.295 3.038.772 3.333.134.083.972-.145 1.86-.506 4.402-1.788 8.813-6.447 11.569-12.218.938-1.965 1.002-2.262 1.08-5l.083-2.91-2.238-1.68c-1.23-.924-2.696-2.158-3.258-2.742-.73-.76-.37-.547 1.268.754 1.26.999 2.658 2.031 3.11 2.294.727.424.82.43.82.056 0-.574-.97-2.446-1.851-3.577-.92-1.18-1.59-2.485-1.586-3.095 0-.262.283.119.625.846.677 1.436 2.422 3.393 2.888 3.238.16-.053.618-.506 1.02-1.006.574-.716.776-1.33.952-2.893l.224-1.985.205 1.943c.2 1.887.224 1.937.848 1.78 1-.25.76.056-.508.652-.633.298-1.47.875-1.86 1.282l-.71.74.405 2.327c.224 1.28.406 2.826.406 3.438 0 .611.078 1.19.174 1.286.096.096 1.064-1.462 2.151-3.462 2.203-4.052 4.88-8.204 6.199-9.616.478-.511.677-.684.442-.385-.86 1.1-3.085 4.544-3.6 5.572-.29.582-1.04 1.927-1.665 2.988-1.745 2.962-1.177 3.059 3.958.674 2.149-.998 2.415-1.072 1.898-.521-.342.364-.489.709-.34.8.143.09 1.177.351 2.296.583l2.036.42.899-.87c.494-.479.898-.75.898-.6 0 .148-.298.55-.662.891-.881.829-.835 1.146.255 1.733 1.569.845.872.678-1.46-.35-2.07-.914-2.418-.985-4.748-.982-2.249.004-2.695.09-4.239.816-.948.447-2.053 1.201-2.453 1.677-1.07 1.272-4.53 8.343-4.334 8.857.29.753 1.537 1.011 5.697 1.18l4.064.166 1.914-2.004c1.564-1.637 1.948-2.21 2.093-3.122.19-1.186.632-1.297.632-.16 0 .373.044.72.099.773.055.052.933-.068 1.951-.266 1.019-.199 2.448-.347 3.175-.33.757.016.984.07.53.126-4.368.534-5.311.92-8.065 3.295l-1.89 1.63.877.905c.481.497 1.621 1.271 2.533 1.72 1.507.743 1.818.803 3.44.664.98-.085 2.526-.387 3.435-.672.91-.286 1.654-.48 1.654-.43 0 .047-.596.411-1.323.807-.728.396-1.323.877-1.323 1.069 0 .525 1.027 1.094 2.787 1.545 1.557.399 1.561.403.325.277-.714-.072-2.027-.533-3.052-1.07-1.42-.744-2.213-.974-3.773-1.097l-1.976-.155 1.046 1.092c1.629 1.7.877 1.289-1.598-.875-2.766-2.419-3.552-2.698-8.576-3.05-2.11-.148-4.25-.389-4.754-.535-.698-.202-1.003-.18-1.271.087-1.027 1.026-4.48 5.629-4.366 5.819.282.472 4.971 2.556 5.742 2.552.447-.002 2.223-.478 3.947-1.058 3.382-1.138 3.944-1.256 3.339-.697-.213.196-1.578.73-3.034 1.188-2.717.854-3.535 1.225-3.275 1.485.233.233 4.083.648 6.78.73 2.029.063 2.37.132 2 .407-.543.402-1.575.413-5.146.057-3.25-.325-4.36-.66-8.56-2.584l-3.176-1.455-4.297 2.194c-4.492 2.292-5.886 3.349-6.57 4.978-.268.641-.54 2.903-.792 6.587-.21 3.085-.501 5.92-.646 6.3-.656 1.727-.054 2.51 1.93 2.51 1.328 0 1.398-.04 2.88-1.636 1.134-1.223 1.476-1.473 1.352-.992-.149.576-.12.605.277.28.819-.672.451.067-.537 1.08l-.98 1.003.781-.003c1.93-.008 5.328-1.374 7.298-2.934 1.931-1.53 2.193-2.189 2.708-6.83.117-1.05.044-1.25-.71-1.965-.57-.54-.67-.727-.312-.58.29.119.84.27 1.22.336.84.145 1.02-.345 1.025-2.808l.004-1.687.728.761.727.761-.58 1.625c-.62 1.737-1.144 4.917-.938 5.703.069.263.252.477.407.477.304 0 3.677-3.359 5.313-5.291.563-.665.812-.86.565-.44-.244.412-.404.79-.355.839.094.094 2.457-.641 7.301-2.273 1.64-.552 2.914-.892 2.83-.756a.584.584 0 01-.446.248c-.16 0-.831.317-1.49.703l-1.2.703 1.308 1.165 1.308 1.165-1.455-.73c-1.788-.899-4.113-1.004-5.556-.252-1.717.895-3.772 2.577-3.492 2.857.145.145 1.258.372 2.473.505 1.215.132 3.698.536 5.517.898 1.819.36 4.26.761 5.424.89 2.021.222 2.146.204 2.792-.396.77-.716 1.095-.805.88-.243-.119.308.326.255 2.19-.26 2.943-.815 3.647-.818 1.463-.007-.919.341-1.743.693-1.831.781-.265.265 1.022 1.467 2.645 2.471.84.518 1.474.995 1.41 1.058-.128.129-2.081-.955-3.776-2.097-.846-.569-1.417-.744-2.426-.744-2.35 0-2.368.229-.121 1.504 1.136.645 2.303 1.423 2.594 1.729.507.533.49.531-.397-.035-2.576-1.648-8.466-3.697-8.466-2.945 0 .362 1.025 1.002 2.84 1.775l1.525.65-1.225-.113c-.93-.085-1.645-.412-2.967-1.355-2.64-1.885-4.204-2.36-7.846-2.382-2.565-.016-3.232.069-4.251.54-1.13.523-4.745 3.623-4.745 4.07 0 .352 2.749 2.339 4.382 3.167.864.438 1.913.798 2.331.8.67.003.718.054.405.431-.307.37-.25.514.43 1.06.433.348 1.441.883 2.242 1.189 1.255.48 1.855.54 4.365.433l2.91-.122-1.72.39c-.945.215-1.758.425-1.805.467-.048.042.501.89 1.22 1.886 1.369 1.896 2.507 3.905 1.325 2.339-.33-.437-1.315-1.513-2.19-2.39-1.376-1.38-1.933-1.727-4.105-2.548-1.383-.523-2.545-.924-2.584-.891-.038.032.109.485.327 1.007.218.52.647 1.879.954 3.017.307 1.138.783 2.46 1.058 2.936.49.852.49.862-.007.595-.817-.437-.887-.338-.707.986.292 2.146 1.302 3.836 2.945 4.927.8.53 1.454 1.028 1.454 1.104 0 .173-.96-.322-1.893-.975-.815-.57-1.446-.633-1.636-.161-.074.182-.143-.06-.155-.538-.011-.478-.2-1.297-.418-1.82-.219-.523-.578-2.335-.798-4.026-.48-3.691-.91-5.063-2.09-6.671-.968-1.319-3.856-3.623-5.63-4.492l-1.11-.544-1.668.703c-4.149 1.748-5.54 2.224-7.978 2.725-1.433.295-2.671.603-2.752.684-.081.081.216.953.66 1.937.444.984.953 2.265 1.131 2.847.178.582.57 1.467.871 1.965.301.5.407.82.236.714-.49-.303-1.57-2.306-1.883-3.497-.157-.595-.535-1.308-.84-1.584-.54-.489-.562-.489-.915-.007-.199.272-.491 1.164-.65 1.981-.158.818-.394 1.725-.523 2.016-.394.89-.309-.818.132-2.646.474-1.96.498-3.474.061-3.747-.182-.113-.97-.277-1.754-.364l-1.423-.157-2.516 3.166c-2.65 3.335-4.56 5.96-4.56 6.268 0 .1 1.221.51 2.713.908 1.491.398 3.783 1.15 5.093 1.671 2.22.882 2.58.947 5.291.952 2.163.004 3.116-.104 3.708-.418 1.02-.54 3.49-3.145 3.83-4.037.143-.376.47-.749.727-.828.257-.08.673-.255.926-.39.82-.438.757-.27-.456 1.22-.657.806-1.194 1.642-1.194 1.859 0 .536 1.093.909 2.663.909.718 0 1.306.119 1.306.264 0 .146-.328.267-.728.269-.4.002-.889.106-1.086.231-.207.131-.677.107-1.114-.058-.604-.228-.956-.19-1.758.187-1.502.708-3.516 2.038-3.516 2.323 0 .35 1.487.918 2.962 1.13l1.243.18-.538.538c-.47.47-.635.497-1.307.219-.423-.176-1.02-.253-1.326-.173-.307.08-1.005-.088-1.554-.374-.549-.286-1.37-.627-1.826-.757-1.047-.3-1.092.103-.188 1.662.353.608 1.202 2.513 1.887 4.232 1.25 3.138 2.488 4.943 3.39 4.943.237 0 .684-.252.993-.56.465-.466.533-.76.4-1.734-.178-1.298.213-1.364.495-.084.095.435.275.79.4.79.124 0 1.097-.69 2.161-1.533 1.065-.844 2.115-1.63 2.333-1.747.48-.256-2.064 2.176-3.94 3.766-1.777 1.506-1.764 1.896.064 1.896.78 0 2.179.082 3.11.182 2.382.255 1.159.552-2.41.584-3.26.03-4.453-.247-5.664-1.31-1.062-.933-1.214-.957-1.214-.197 0 .947-.404.213-.9-1.634-.634-2.365-2.438-5.732-3.806-7.104-2.25-2.256-6.067-3.473-10.918-3.48l-2.792-.006-.642 1.257c-.599 1.17-.65 1.59-.736 6.117-.061 3.185.003 4.956.187 5.14.381.381 1.125-.322 1.916-1.813.439-.827.791-1.176 1.186-1.176.616 0 2.254-1.642 3.246-3.255.34-.553.673-.952.74-.886.175.176-.945 2.323-1.568 3.003-.73.797-.448 1.47.52 1.246a8.405 8.405 0 001.528-.565c.437-.218 1.05-.43 1.363-.473.313-.042.834-.16 1.157-.263.92-.291.402.293-.973 1.098-1.396.819-1.21 1.077.958 1.334.725.086 1.269.236 1.208.334-.06.098-.802.092-1.647-.014-1.895-.236-4.844-.289-4.844-.086 0 .744 2.822 4.087 4.137 4.9a11.7 11.7 0 002.034.942l1.105.368-1.149-.144c-1.688-.212-3.035-1.007-4.323-2.55-2.538-3.04-2.686-3.101-4.11-1.678-1.034 1.035-.95 1.4.463 1.984.883.366.961.579.39 1.054-.326.27-.486.218-.896-.29-.43-.53-.562-.567-.928-.263-.62.515-.544 1.744.481 7.778 1.06 6.236 1.322 9.255 1.875 21.616.418 9.354.736 14.005 1.191 17.415.143 1.066.26 2.048.26 2.183 0 .146-3.695.245-9.129.245-5.02 0-9.128-.058-9.128-.13zm56.357-98.4c0-.06.863-.364 1.918-.678 3.002-.892 3.005-.893 2.712-.586-.146.152-1.155.523-2.244.823-2.026.56-2.386.626-2.386.44zm-19.315-21.704c0-.063.387-.382.86-.709l.86-.594-.642.709c-.572.631-1.078.91-1.078.594zm-23.518-8.382c-.163-.468-.25-.897-.194-.953.057-.057.236.28.4.747.162.468.25.897.193.953-.057.057-.236-.28-.4-.747zm9.669-8.535c-.11-.417-.137-.821-.06-.897.212-.214.473.639.36 1.178-.075.352-.154.279-.3-.28zm6.33-2.407c.243-1.634.792-2.466 1.815-2.749.5-.138 1.363-.575 1.918-.972l1.008-.72-.81.76c-.447.42-1.355 1.136-2.02 1.594-.866.597-1.33 1.16-1.637 1.985l-.429 1.151zm-10.186-8.1c.303-.304.63-.473.727-.376.097.097-.055.345-.337.551-.77.563-1.017.452-.39-.176z"
              fill="#000" stroke-width=".265"/>
    </g>
</svg>